{"title":"Bringing Up Bates - s02e13 - Addee and Ellie's Pool Party - 1080","uid":12349571,"size":880903980,"categoryP":"video","categoryS":"hd___tv_shows","magnet":"?xt=urn:btih:5241b6cd5bd483655e5dcdf3eb9d7ad72903f364&amp;dn=Bringing+Up+Bates+-+s02e13+-+Addee+and+Ellie%27s+Pool+Party+-+1080&amp;tr=udp%3A%2F%2Ftracker.openbittorrent.com%3A80&amp;tr=udp%3A%2F%2Fopen.demonii.com%3A1337&amp;tr=udp%3A%2F%2Ftracker.coppersurfer.tk%3A6969&amp;tr=udp%3A%2F%2Fexodus.desync.com%3A6969","seeders":1,"leechers":0,"uploader":null,"files":14,"time":1441402159,"description":"General\n Complete name : Bringing Up Bates - s02e13 - Addee and Ellie's Pool PartyBringing Up Bates - s02e13 - Addee and Ellie's Poll Party.mp4\n Format : MPEG-4\n Format profile : Base Media / Version 2\n Codec ID : mp42\n File size : 652 MiB\n Duration : 22mn 39s\n Overall bit rate mode : Variable\n Overall bit rate : 4 025 Kbps\n Encoded date : UTC 2015-08-28 03:56:45\n Tagged date : UTC 2015-08-28 05:47:38\n\n Video\n ID : 1\n Format : AVC\n Format/Info : Advanced Video Codec\n Format profile : High@L4\n Format settings, CABAC : Yes\n Format settings, ReFrames : 4 frames\n Codec ID : avc1\n Codec ID/Info : Advanced Video Coding\n Duration : 22mn 39s\n Bit rate : 3 800 Kbps\n Width : 1 920 pixels\n Height : 1 080 pixels\n Display aspect ratio : 16:9\n Frame rate mode : Variable\n Frame rate : 29.970 fps\n Minimum frame rate : 9.991 fps\n Maximum frame rate : 29.970 fps\n Color space : YUV\n Chroma subsampling : 4:2:0\n Bit depth : 8 bits\n Scan type : Progressive\n Bits/(Pixel*Frame) : 0.061\n Stream size : 616 MiB (94%)\n Writing library : x264 core 146 r2538 121396c\n Encoding settings : cabac=1 / ref=3 / deblock=1:0:0 / analyse=0x3:0x133 / me=hex / subme=7 / psy=1 / psy_rd=1.00:0.00 / mixed_ref=1 / me_range=16 / chroma_me=1 / trellis=1 / 8x8dct=1 / cqm=0 / deadzone=21,11 / fast_pskip=1 / chroma_qp_offset=-2 / threads=3 / lookahead_threads=1 / sliced_threads=0 / nr=0 / decimate=1 / interlaced=0 / bluray_compat=0 / constrained_intra=0 / bframes=3 / b_pyramid=2 / b_adapt=1 / b_bias=0 / direct=1 / weightb=1 / open_gop=0 / weightp=2 / keyint=250 / keyint_min=25 / scenecut=40 / intra_refresh=0 / rc_lookahead=40 / rc=2pass / mbtree=1 / bitrate=3800 / ratetol=1.0 / qcomp=0.60 / qpmin=10 / qpmax=51 / qpstep=4 / cplxblur=20.0 / qblur=0.5 / ip_ratio=1.40 / aq=1:1.00\n Encoded date : UTC 2015-08-28 03:56:45\n Tagged date : UTC 2015-08-28 05:47:38\n\n Audio\n ID : 2\n Format : AAC\n Format/Info : Advanced Audio Codec\n Format profile : LC\n Codec ID : 40\n Duration : 22mn 39s\n Duration_FirstFrame : 149ms\n Bit rate mode : Variable\n Bit rate : 221 Kbps\n Channel(s) : 2 channels\n Channel positions : Front: L R\n Sampling rate : 48.0 KHz\n Compression mode : Lossy\n Stream size : 35.9 MiB (5%)\n Title : Stereo\n Encoded date : UTC 2015-08-28 03:56:58\n Tagged date : UTC 2015-08-28 05:47:38","torrent":{"xt":"urn:btih:5241b6cd5bd483655e5dcdf3eb9d7ad72903f364","amp;dn":"Bringing+Up+Bates+-+s02e13+-+Addee+and+Ellie%27s+Pool+Party+-+1080","amp;tr":["udp%3A%2F%2Ftracker.openbittorrent.com%3A80","udp%3A%2F%2Fopen.demonii.com%3A1337","udp%3A%2F%2Ftracker.coppersurfer.tk%3A6969","udp%3A%2F%2Fexodus.desync.com%3A6969"],"infoHash":"5241b6cd5bd483655e5dcdf3eb9d7ad72903f364","infoHashBuffer":{"type":"Buffer","data":[82,65,182,205,91,212,131,101,94,93,205,243,235,157,122,215,41,3,243,100]},"announce":[],"urlList":[]}}